<svg xmlns="http://www.w3.org/2000/svg" width="153.3" height="153.3" viewBox="0 0 153.3 153.3"><path fill="#0056cb" d="M79.4 90.6c-.2 0-.2.1-.2.4h-.1a.3.3 0 1 0 .3.3.3.3 0 0 0 .3-.3c0-.3-.1-.4-.3-.4zm.9-.5l-.5.5h.1l.7-.2.5-.4h-.8zm1.8-1.5c-.1 0-.2.1-.2.3h-.1c-.2 0-.3.1-.3.4a.3.3 0 0 0-.3.3c0 .2.1.4.3.4s.2-.2.2-.4h.1a.3.3 0 0 0 .3-.3c.2 0 .3-.2.3-.4a.3.3 0 0 0-.3-.3zm14-3.6a7.1 7.1 0 0 1-.7.9 1 1 0 0 0 .5.6h.6a1.4 1.4 0 0 0 .9-.3l.6-.7a4.1 4.1 0 0 0 .5-.9c.1-.3.2-.7.3-.7h-2.1c-.1.1-.3.8-.6 1.1z"/><path fill="#0056cb" d="M76.7 0a76.7 76.7 0 1 0 76.6 76.7A76.6 76.6 0 0 0 76.7 0zm57.5 45.5l-1 .2H131l-3.2.8a7.3 7.3 0 0 0-2.2.9 6.4 6.4 0 0 0-1.5 1.3 7.7 7.7 0 0 0-1 1.8q-.4 1-.9 2.4a26.2 26.2 0 0 0-1 3 17.2 17.2 0 0 0-.7 2.1c-.3.6-.5 1.3-.8 1.9s-.5 1.2-.9 1.9a17.4 17.4 0 0 1-1 1.9c-.5.9-1.1 1.7-1.6 2.5l-1.8 2.2-1.9 2.1c-.6.8-1.3 1.5-1.9 2.4a8 8 0 0 0-.8 1.6l-.6 1.5a3.5 3.5 0 0 1-.8 1.3 2.8 2.8 0 0 1-1.5 1l-.8.3-1.2.4-1.2.4-.9.3a1.7 1.7 0 0 1 .1 1.2l-.5.5-.7.4a.9.9 0 0 0-.6.6l-1.3 4a2.1 2.1 0 0 1-.6 1l-1.1.5h-3.5a.5.5 0 0 1-.3-.5v-.2c0-.1.1-.1.1-.2h.2v-.3l-2.1 1-2 1.3-2 1.3-2 1.2-.6.2-.7.4-.6.5a1.1 1.1 0 0 0-.2.6v.2l1.1 1 1.2 1.1 1.2.9a5.7 5.7 0 0 0 1.3.8l1.1.4 1.1.3 1.2.4a2.7 2.7 0 0 1 1 .6l.8.8.7.9.6.9.9.8 1 .3 1.3.4 1.1.6a1.3 1.3 0 0 1 .4 1v.4l-3.4.6-.7.3h-1l-.7-.4-1.1-.6-1-.6-.6-.4v-.2l-.2-.3-.2-.3c-.1-.1-.2-.2-.2-.3l-1.3-2.7-.7-.3-1.1-.4-1.3-.6-1.3-.6-1.1-.4-.7-.4-1.6-1a6.5 6.5 0 0 1-1.6-1.3 4.8 4.8 0 0 1-1.2-1.6 4.4 4.4 0 0 1-.7-1.9c0 .1-.1.1-.3.2l-.4.2-.5.4-1 .7-1.3.8-1.3.9-1 .6-.6.3-3.6 2.1a12 12 0 0 0-2.7 2.1 9.7 9.7 0 0 0-2.2 2.7c-.6 1-.5 2.4-1.5 4v.8a6.2 6.2 0 0 0 .7 2.7 4.2 4.2 0 0 0 1.3 1.6 8 8 0 0 0 1.6.8l1.5.6a3.4 3.4 0 0 1 1.2.6 3.3 3.3 0 0 1 .5 1.2h-8v-.2c-.1-.1-.2-.1-.2-.2h-.7a2.5 2.5 0 0 1-.8-1l-.3-1.3a7.8 7.8 0 0 1 .2-1.4c0-.5.1-.9.1-1.2v-.9a8.9 8.9 0 0 1 .2-1.1l.3-1.6c.2-.6.3-1.2.5-1.9s.3-1.3.5-1.9.3-1.1.4-1.6a6.5 6.5 0 0 0 .2-1.1 5.6 5.6 0 0 0 .4-1.2l.6-1.1a8.5 8.5 0 0 0 2.8-1.6 18 18 0 0 0 1.9-2l1.8-2a9.1 9.1 0 0 1 2-1.9l.9-.4 1.2-.5 1.5-.6 1.3-.6a7.6 7.6 0 0 0 .9-.9 1.3 1.3 0 0 0 .4-.9V85a2.5 2.5 0 0 0-.4-.7l-.5-.2-.7-.3-.7-.4-.5-.2a4 4 0 0 1-1.2-.7l-1.6-1.1-1.5-1a2 2 0 0 0-1.1-.3h-4.8c-3.7 0-7.2-.1-10.7.1H42.8l-7.7-.2c-2.6-.2-5-.5-7.5-.9a58 58 0 0 1-7.2-1.7 44.7 44.7 0 0 1-7.2-3.1l-.8-.4-1-.6a2.7 2.7 0 0 1-.7-.8 1.2 1.2 0 0 1-.4-.9 3.2 3.2 0 0 1 1.3.2 5.9 5.9 0 0 1 1.4.6l1.4.5.9.4 2.8 1 3 .9 3.1.6 3 .2h16l1.5-.2 2-.3 2.2-.4 2.1-.3 1.6-.4 4.2-.8 4.4-1c1.5-.3 3-.8 4.4-1.2l4-1.7 2.3-1.1 2.3-1 2.4-.8 2.5-.5h2.8l.6-.2 1.1-.2 2-.4 2.5-.5 2.4-.6 2-.7 1.2-.4h3.9c1.7 0 3.3.3 4.8.4a37.1 37.1 0 0 0 4.7.3 6.7 6.7 0 0 0 3.1-.7 10.9 10.9 0 0 0 2.7-2.1 17 17 0 0 0 2.3-3 30.1 30.1 0 0 0 2-3.4l1.6-3.4 1-2.9a17.2 17.2 0 0 0 .7-2.1l.6-1.9a7.7 7.7 0 0 1 .7-1.6l1.1-1.2a6.1 6.1 0 0 1 1.6-.9 7.1 7.1 0 0 1 2.3-.5h1.8c.5 1 1.1.5 1.8.8a14.5 14.5 0 0 1 2.2.9l1.8 1.1a1.7 1.7 0 0 1 .7 1.3 1.2 1.2 0 0 1-.3.9 1.5 1.5 0 0 1-.6.2z"/></svg>