<svg xmlns="http://www.w3.org/2000/svg"><symbol id="micropachycephalosaurus" viewBox="0 0 153.3 153.3"><path fill="#0056cb" d="M35.1 100.2a22.4 22.4 0 0 0-4.6.5h-.1l.5.6 1.2.6 1.6.6 1.7.5 1.4.3.9.2H39l1.5-.2 1.5-.6a2.7 2.7 0 0 0 1-.8 16.4 16.4 0 0 0-3.9-1.4 17.5 17.5 0 0 0-4-.3z"/><path fill="#0056cb" d="M76.7 0a76.7 76.7 0 1 0 76.6 76.7A76.6 76.6 0 0 0 76.7 0zm50 42.3v.2a3.2 3.2 0 0 1-.1.8c-.1.4-.1.9-.2 1.3s-.1.9-.2 1.3a2.5 2.5 0 0 0-.1.8 3.9 3.9 0 0 0-.6 1.1c-.1.4-.3.7-.4 1.2l-.3 1.2a3.7 3.7 0 0 1-.5 1.1 11.4 11.4 0 0 1-1 1.9 15.1 15.1 0 0 0-.9 1.8l-12.1 16.7c0 .2-.1.3-.1.4h-.2l-.2.2-.2.3-1 1.4-1.3 1.7-1.3 2-1.2 1.9-.8 1.8a4.4 4.4 0 0 0-.3 1.4c0 .2-.2.3-.1.5s.1.2.1.4a.2.2 0 0 0-.2.2c0 .2.1.2.2.3v6.1a1.4 1.4 0 0 1-.2.6c-.1.2-.1.5-.2.7l-.4.7c0 .3-.2.5-.2.7v1s.1.1 0 .3l-.3.4-.4.5a.7.7 0 0 1-.3.3v.2c0 .1.4.2.4.3l.6.2V98a13 13 0 0 1-.4 2.1 14.2 14.2 0 0 1-.5 2.2c-.1.7-.3 1.4-.4 2.1a14.9 14.9 0 0 0-.2 2.1c0 1.3.1 2.5.2 3.8a22 22 0 0 0 .7 3.7 17.1 17.1 0 0 0 3.3 6.6 1.8 1.8 0 0 1-.7.5l-1.1.4a1.9 1.9 0 0 1-1 .3h-1.8l-.7-.2h-1l-.5-.2-.4-.3c-.1-.1-.1-.2-.2-.4a20.1 20.1 0 0 0 .1-2.5c0-.8-.1-1.7-.1-2.5a20.2 20.2 0 0 0-.4-2.6l-.3-2.5v-.6c-.1-.2-.1-.4-.2-.4a15.5 15.5 0 0 0 .1-2.2 19.3 19.3 0 0 0-.2-2.4 8.8 8.8 0 0 0-.3-2.4 6.7 6.7 0 0 0-.9-2.1 2.4 2.4 0 0 0-.8 1.1 7.5 7.5 0 0 0-.5 1.6 11.3 11.3 0 0 1-.3 1.8c-.1.5-.5 1-.5 1.4v4.5c0 1.7-.2 3.4-.1 5a42.1 42.1 0 0 0 .4 5l.2.2.5.4.5.4c.1.1.2.2.2.3s-.2.3-.5.5l-1.1.5-1.2.6-.8.2h-.1l-2.9-1.6c-.2-.1-.1-.2-.1-.3v-.3a10.7 10.7 0 0 1 0-1.8 10.9 10.9 0 0 0 .1-1.8 16.4 16.4 0 0 0-.2-2.3c-.1-.8-.3-1.5-.4-2.3l-.3-2.2a19.4 19.4 0 0 1-.2-2.4 12.7 12.7 0 0 1 .1-2 9.9 9.9 0 0 1 .2-1.7l.3-1.7c.1-.5.3-1.2.4-1.9v-.4a.9.9 0 0 1-.1-.5l-1.1.2-1.2.3-1.1.4-1.2.3H72.4a2.8 2.8 0 0 0-1.4.6v3.1c0 1 0 2-.1 3.1s-.1 2-.1 3-.1 2.1-.1 3.2v3c0 .3.4.6.6 1l.9 1a6.1 6.1 0 0 1 .7 1 2.6 2.6 0 0 1 .3 1.1v.2a6.5 6.5 0 0 1-2.4.2c0 .3 0 .4-.2.5h-3l-1.1-.5a1.4 1.4 0 0 1-.4-1.1v-.8a2.4 2.4 0 0 0 .2-.8 2.4 2.4 0 0 0 .2-.8 1.9 1.9 0 0 0 .1-.8 16.9 16.9 0 0 0-.1-2.3c-.2-.8-.3-1.5-.5-2.2a18.9 18.9 0 0 0-.5-2.3c-.1-.7-.3-1.4-.4-2.4h-.2c-.2 0-.3.5-.4.6s-.1.2-.2.4l-.2.3-.9 1.4-.9 1.3a10.1 10.1 0 0 0-.7 1.5 7.8 7.8 0 0 0-.2 1.6 3.6 3.6 0 0 0 .2 1l.4.9.5.7.2.4a.5.5 0 0 1-.3.4l-.6.3h-3.4l-.6-.2-.5-.5-.3-1-.3-1a3 3 0 0 1-.2-1 1.6 1.6 0 0 1 .3-.9 4.1 4.1 0 0 1 .5-.9l.7-1a4.1 4.1 0 0 0 .5-.9L60 109c.4-1.2.9-2.4 1.4-3.6l.3-.4.3-.5.3-.4a.9.9 0 0 0 .1-.5c0-.2-.1-.4-.2-.4h-.8l-5.4 1.5-.8.3-1 .2-1 .4a.5.5 0 0 0-.4.6.7.7 0 0 0 .2.6c0 .1.2.2.3.4l.5.3a1 1 0 0 1 .5.4l-.3.2-.7-.5-.9-.5-.9-.4h-.9l-2.3.3-2.4.7-2.4.7a11.5 11.5 0 0 1-2.6.3l-2.1-.3-2.9-.6-3.3-1.1a20.8 20.8 0 0 1-3-1.3 9.8 9.8 0 0 1-2.2-1.7 2.3 2.3 0 0 1-.9-1.8 2.4 2.4 0 0 1 .7-1.9 3.4 3.4 0 0 1 1.6-1 7.9 7.9 0 0 1 2.2-.1l2 .2h2.4a2 2 0 0 1 .7-.2h1.4l1.6.2 1.2.2 1.2.3 1 .5 1.1.5 1.2.2a4.4 4.4 0 0 0 2.4-.7 12.8 12.8 0 0 0 2.5-1.5l2.4-1.9 1.9-1.6 1.2-.8 1.1-.6 1-.8a2.8 2.8 0 0 0 .9-1c.6-.9 1.1-1.8 1.6-2.7a17.5 17.5 0 0 1 1.6-2.7l.8-.8 1-.6.9-.5 1-.6 2.2-1.6 2.1-1.7 2-1.8 2.1-1.8a17.1 17.1 0 0 1 2.3-1.3l2.3-1.1 1.5-.8 1.5-.8 1.6-.7 1.6-.4 13.5-2a5.8 5.8 0 0 0 2.1-.7 8.6 8.6 0 0 0 2-1.3 15.4 15.4 0 0 0 1.9-1.7l1.8-2 1.6-1.9 1.4-1.7 4.7-5.4.2-.2.3-.3.3-.3.2-.2 1.2-2h.4l.2-.2a.1.1 0 0 0 .1-.1l.3-.2c.1-.1.2-.2.2-.3l.8-1 .8-1.2.8-1.2.6-1 .5-1.2.4-1.3a6.9 6.9 0 0 1 .5-1.3c.1-.5.6-.9.6-1.3v-3.9a3.4 3.4 0 0 0-.7-1.9 8.1 8.1 0 0 0-1.6-1.6l-2-1.1a8.1 8.1 0 0 0-1.9-.4 18.7 18.7 0 0 0-3.5.4 7.1 7.1 0 0 0-3.1 1.6 3.8 3.8 0 0 0-.9.9l-1 1.1-1 1.2-1.1 1.1a5.9 5.9 0 0 1-1.1.8l-1.1.3a.9.9 0 0 1-.7-.3.7.7 0 0 1-.3-.6V39a.6.6 0 0 0 .1-.4 1.1 1.1 0 0 0 .1-.5.4.4 0 0 0 .1-.3 3 3 0 0 0-.2-1l-.3-.8-.4-.7a2.4 2.4 0 0 1-.2-.8c.3 0 .5 0 .6-.2l.2-.3.3-.5a.6.6 0 0 1 .5-.3c0-.1.1-.1.3-.1h1.4a1.1 1.1 0 0 0 .6-.2l.4-.4h.2c.1 0 .1.1.2.2s0 .2.1.3a.2.2 0 0 1 .2-.2l.4-.3.7-.4.8-.4.8-.5.6-.4.4-.3 1.3-.7 1-.4h5.1a1.6 1.6 0 0 0 .9.3l.9.2.9.2 1 .3a12.7 12.7 0 0 1 2.7 1.8 9.7 9.7 0 0 1 1.9 2.6 13.3 13.3 0 0 1 1.1 3 18.4 18.4 0 0 1 .3 3.3v1.4z"/></symbol><symbol id="brachiosaurus" viewBox="0 0 153.3 153.3"><path fill="#0056cb" d="M79.4 90.6c-.2 0-.2.1-.2.4h-.1a.3.3 0 1 0 .3.3.3.3 0 0 0 .3-.3c0-.3-.1-.4-.3-.4zm.9-.5l-.5.5h.1l.7-.2.5-.4h-.8zm1.8-1.5c-.1 0-.2.1-.2.3h-.1c-.2 0-.3.1-.3.4a.3.3 0 0 0-.3.3c0 .2.1.4.3.4s.2-.2.2-.4h.1a.3.3 0 0 0 .3-.3c.2 0 .3-.2.3-.4a.3.3 0 0 0-.3-.3zm14-3.6a7.1 7.1 0 0 1-.7.9 1 1 0 0 0 .5.6h.6a1.4 1.4 0 0 0 .9-.3l.6-.7a4.1 4.1 0 0 0 .5-.9c.1-.3.2-.7.3-.7h-2.1c-.1.1-.3.8-.6 1.1z"/><path fill="#0056cb" d="M76.7 0a76.7 76.7 0 1 0 76.6 76.7A76.6 76.6 0 0 0 76.7 0zm57.5 45.5l-1 .2H131l-3.2.8a7.3 7.3 0 0 0-2.2.9 6.4 6.4 0 0 0-1.5 1.3 7.7 7.7 0 0 0-1 1.8q-.4 1-.9 2.4a26.2 26.2 0 0 0-1 3 17.2 17.2 0 0 0-.7 2.1c-.3.6-.5 1.3-.8 1.9s-.5 1.2-.9 1.9a17.4 17.4 0 0 1-1 1.9c-.5.9-1.1 1.7-1.6 2.5l-1.8 2.2-1.9 2.1c-.6.8-1.3 1.5-1.9 2.4a8 8 0 0 0-.8 1.6l-.6 1.5a3.5 3.5 0 0 1-.8 1.3 2.8 2.8 0 0 1-1.5 1l-.8.3-1.2.4-1.2.4-.9.3a1.7 1.7 0 0 1 .1 1.2l-.5.5-.7.4a.9.9 0 0 0-.6.6l-1.3 4a2.1 2.1 0 0 1-.6 1l-1.1.5h-3.5a.5.5 0 0 1-.3-.5v-.2c0-.1.1-.1.1-.2h.2v-.3l-2.1 1-2 1.3-2 1.3-2 1.2-.6.2-.7.4-.6.5a1.1 1.1 0 0 0-.2.6v.2l1.1 1 1.2 1.1 1.2.9a5.7 5.7 0 0 0 1.3.8l1.1.4 1.1.3 1.2.4a2.7 2.7 0 0 1 1 .6l.8.8.7.9.6.9.9.8 1 .3 1.3.4 1.1.6a1.3 1.3 0 0 1 .4 1v.4l-3.4.6-.7.3h-1l-.7-.4-1.1-.6-1-.6-.6-.4v-.2l-.2-.3-.2-.3c-.1-.1-.2-.2-.2-.3l-1.3-2.7-.7-.3-1.1-.4-1.3-.6-1.3-.6-1.1-.4-.7-.4-1.6-1a6.5 6.5 0 0 1-1.6-1.3 4.8 4.8 0 0 1-1.2-1.6 4.4 4.4 0 0 1-.7-1.9c0 .1-.1.1-.3.2l-.4.2-.5.4-1 .7-1.3.8-1.3.9-1 .6-.6.3-3.6 2.1a12 12 0 0 0-2.7 2.1 9.7 9.7 0 0 0-2.2 2.7c-.6 1-.5 2.4-1.5 4v.8a6.2 6.2 0 0 0 .7 2.7 4.2 4.2 0 0 0 1.3 1.6 8 8 0 0 0 1.6.8l1.5.6a3.4 3.4 0 0 1 1.2.6 3.3 3.3 0 0 1 .5 1.2h-8v-.2c-.1-.1-.2-.1-.2-.2h-.7a2.5 2.5 0 0 1-.8-1l-.3-1.3a7.8 7.8 0 0 1 .2-1.4c0-.5.1-.9.1-1.2v-.9a8.9 8.9 0 0 1 .2-1.1l.3-1.6c.2-.6.3-1.2.5-1.9s.3-1.3.5-1.9.3-1.1.4-1.6a6.5 6.5 0 0 0 .2-1.1 5.6 5.6 0 0 0 .4-1.2l.6-1.1a8.5 8.5 0 0 0 2.8-1.6 18 18 0 0 0 1.9-2l1.8-2a9.1 9.1 0 0 1 2-1.9l.9-.4 1.2-.5 1.5-.6 1.3-.6a7.6 7.6 0 0 0 .9-.9 1.3 1.3 0 0 0 .4-.9V85a2.5 2.5 0 0 0-.4-.7l-.5-.2-.7-.3-.7-.4-.5-.2a4 4 0 0 1-1.2-.7l-1.6-1.1-1.5-1a2 2 0 0 0-1.1-.3h-4.8c-3.7 0-7.2-.1-10.7.1H42.8l-7.7-.2c-2.6-.2-5-.5-7.5-.9a58 58 0 0 1-7.2-1.7 44.7 44.7 0 0 1-7.2-3.1l-.8-.4-1-.6a2.7 2.7 0 0 1-.7-.8 1.2 1.2 0 0 1-.4-.9 3.2 3.2 0 0 1 1.3.2 5.9 5.9 0 0 1 1.4.6l1.4.5.9.4 2.8 1 3 .9 3.1.6 3 .2h16l1.5-.2 2-.3 2.2-.4 2.1-.3 1.6-.4 4.2-.8 4.4-1c1.5-.3 3-.8 4.4-1.2l4-1.7 2.3-1.1 2.3-1 2.4-.8 2.5-.5h2.8l.6-.2 1.1-.2 2-.4 2.5-.5 2.4-.6 2-.7 1.2-.4h3.9c1.7 0 3.3.3 4.8.4a37.1 37.1 0 0 0 4.7.3 6.7 6.7 0 0 0 3.1-.7 10.9 10.9 0 0 0 2.7-2.1 17 17 0 0 0 2.3-3 30.1 30.1 0 0 0 2-3.4l1.6-3.4 1-2.9a17.2 17.2 0 0 0 .7-2.1l.6-1.9a7.7 7.7 0 0 1 .7-1.6l1.1-1.2a6.1 6.1 0 0 1 1.6-.9 7.1 7.1 0 0 1 2.3-.5h1.8c.5 1 1.1.5 1.8.8a14.5 14.5 0 0 1 2.2.9l1.8 1.1a1.7 1.7 0 0 1 .7 1.3 1.2 1.2 0 0 1-.3.9 1.5 1.5 0 0 1-.6.2z"/></symbol><symbol id="velociraptor" viewBox="0 0 153.3 153.3"><path fill="#0056cb" d="M76.7 0a76.7 76.7 0 1 0 76.6 76.7A76.6 76.6 0 0 0 76.7 0zM143 70h-4.5l-5.5-.2-5.5-.6-5.5-.6a49.3 49.3 0 0 0-5.5-.3 80.6 80.6 0 0 0-9.8.6 51.5 51.5 0 0 0-9.6 2.1l-18.4 6.7c-.3.1-.5.4-.7.9a8.4 8.4 0 0 0-.5 1.7c-.1.6-.3 1.2-.4 1.7a5 5 0 0 1-.3 1.2 1.5 1.5 0 0 0 .8.8l1.5.7 1.7.7a5.6 5.6 0 0 1 1.7.9 4.3 4.3 0 0 1 1.2 1.1 2 2 0 0 1 .5 1.5.9.9 0 0 1-.3.7 1.8 1.8 0 0 1-.7.5l-1 .5-.9.5a2.4 2.4 0 0 0-.8.6 1.2 1.2 0 0 0-.3.9 2.3 2.3 0 0 0 .5 1.5 4 4 0 0 0 1.2 1l1.4.8a4.1 4.1 0 0 1 1.3 1 11.3 11.3 0 0 1 1.2 2.1 19.5 19.5 0 0 1 .8 2.2 18.5 18.5 0 0 1 .4 2.3 19.4 19.4 0 0 1 .2 2.4l.8.8v4.3h1.1l.6.2h.4v.5a1.5 1.5 0 0 1-.1.6 1.4 1.4 0 0 1-.2.7 1.3 1.3 0 0 1-.4.6c-.1.2-.3.2-.5.2h-3.1l-.6-.5-.9-.5-1-.5-.6-.5h-3.8a3.4 3.4 0 0 1 .4-1.8 2.8 2.8 0 0 1 1-.9l1.3-.4 1.3-.2 1-.4c.2-.1.3-.4.3-.8v-.4l-.5-1.1-.8-1.4a11.9 11.9 0 0 0-.9-1.5 3.5 3.5 0 0 0-.9-1.1l-.8-.5-1.1-.5-1.1-.7a1.3 1.3 0 0 1-.6-.7c-.2-.5-.3-1-.5-1.7a11.8 11.8 0 0 0-.7-2 4 4 0 0 0-1-1.5 2.4 2.4 0 0 0-1.8-.6 14.7 14.7 0 0 0-3.6.4 12.8 12.8 0 0 0-3.4 1.4 16.1 16.1 0 0 0-3 2.1 10.1 10.1 0 0 0-2.4 2.7h-.4v-.2c-.1-.1-.1-.2-.1-.4v-.3a.3.3 0 0 1-.1-.2h-.2a.9.9 0 0 0-.6.3l-.5.7-.5.8a1.7 1.7 0 0 1-.6.6l-.4-1v-1a9.9 9.9 0 0 1 .2-1.7l.6-1.7a8.8 8.8 0 0 0 .5-1.5 9.9 9.9 0 0 0 .3-1.7h-3a1.7 1.7 0 0 1 .4-1.4 3.2 3.2 0 0 1 1-1L59 90l1.3-.2h1.8l1.8.3 1.7.3h3.1a1.5 1.5 0 0 0-1-.9l-1.7.1-1.6-.2a3.1 3.1 0 0 1-1.4-.1L60.7 88h-.2a6.1 6.1 0 0 0-1.9 0h-1.9a5.8 5.8 0 0 1-1.8-.4l-1.6-.9-1.6-.7a3.2 3.2 0 0 0-1.7-.4v3.7h1l.6-.2.5-.3c.2-.1.2-.3.5-.4h.4v1.7l1.2-.4a.4.4 0 0 1 .1.3.4.4 0 0 1 .1.3 3.1 3.1 0 0 1-.8 2.3 16.6 16.6 0 0 1-1.9 1.8 10.9 10.9 0 0 0-2.8-.8L46 93v-4.7l-1 .3-1.3.6-1.1.7c-.3.3-.6.5-.6.7v4.2a3.9 3.9 0 0 0 1.8-.2l1.1-.3.7-.4h1c0 .1.1.2.2.4a2.4 2.4 0 0 0 .2.8l.3.8a4.3 4.3 0 0 0 .1.5 2.7 2.7 0 0 1-.3 1.2 3 3 0 0 1-.6 1.1 3.9 3.9 0 0 1-1 .8 1.9 1.9 0 0 1-1 .3h-.7l-1.8-.4-2.2-.5a5.4 5.4 0 0 1-1.9-.7 1.5 1.5 0 0 1-.9-1.3v-7c0-.1.2-.3.5-.5l1.2-1 1.4-1.3 1.4-1.5a11.6 11.6 0 0 0 1.1-1.6 3.7 3.7 0 0 0 .5-1.6 2.8 2.8 0 0 0-.7-1.7 10.4 10.4 0 0 0-1.7-1.2l-2-.9-1.5-.5-.8-5.5A12.4 12.4 0 0 0 36 71a4.9 4.9 0 0 0-.6-1.7 6.9 6.9 0 0 0-1.1-1.3 2.8 2.8 0 0 0-1.6-.5 6.9 6.9 0 0 0-2.2.3 8.2 8.2 0 0 0-1.9.9l-1 .6-1.6.9-1.8 1.1-1.7 1a10.1 10.1 0 0 1-1.6 1c-.4.3-.8.7-1 .7h-1.6l-1.3-.4-.8-.4c-.3-.2-.2-.5-.2-.9v-1.1c0-.3-.1-.5 0-.5h1a.1.1 0 0 1 0-.2.9.9 0 0 1 .1-.5.7.7 0 0 1 .1-.5v-.3l-.5-.5-.5-.3c-.2-.1-.3-.3-.4-.4s-.2-.4-.2-.8a2 2 0 0 1 .1-.7l.4-.7c.2-.2.2-.4.4-.5l.5-.3v.5c0 .3.3.6.3.8a.8.8 0 0 0 .8.5.9.9 0 0 0 .6-.3l.6-.7a3 3 0 0 0 .4-1c.1-.2.1.2.1-.8h-7.3c-.2 0-.3-.1-.5-.3l-.7-.4c-.2-.2-.4-.3-.5-.5a.7.7 0 0 1-.3-.6 2.9 2.9 0 0 1 .7-1.9 3.8 3.8 0 0 1 1.6-1.1 6 6 0 0 1 1.9-.6l1.7-.5 1.3-.6 2.1-.9 2-1a4.5 4.5 0 0 1 1.3-.6h8.2a4.4 4.4 0 0 1 2.3.6 9 9 0 0 1 1.9 1.5 14.9 14.9 0 0 1 1.5 2l1.4 2a10.3 10.3 0 0 0 1.4 1.5 2.1 2.1 0 0 0 1.5.7.5.5 0 0 0 .5-.3c0-.1.2-.2.5-.2a1.5 1.5 0 0 1 .9.2l.9.4.9.4 1 .2h2.4l2.5-.3 2.5-.3h2.5l4.4.2a24.1 24.1 0 0 1 4.3 1l3.1 1.2 3 1.3 3.2 1a12 12 0 0 0 3.3.5h1.5l7.8-1.6c2.6-.6 5.2-1 7.7-1.4l7.8-1c2.6-.2 5.3-.3 7.9-.3h5.3a22.4 22.4 0 0 1 3.1.5l21.9 4.2h7.1c-.5 0-1.1.6-1.9.8a19.4 19.4 0 0 1-2.4.2z"/></symbol></svg>