<svg xmlns="http://www.w3.org/2000/svg" width="153.3" height="153.3" viewBox="0 0 153.3 153.3"><path fill="#0056cb" d="M35.1 100.2a22.4 22.4 0 0 0-4.6.5h-.1l.5.6 1.2.6 1.6.6 1.7.5 1.4.3.9.2H39l1.5-.2 1.5-.6a2.7 2.7 0 0 0 1-.8 16.4 16.4 0 0 0-3.9-1.4 17.5 17.5 0 0 0-4-.3z"/><path fill="#0056cb" d="M76.7 0a76.7 76.7 0 1 0 76.6 76.7A76.6 76.6 0 0 0 76.7 0zm50 42.3v.2a3.2 3.2 0 0 1-.1.8c-.1.4-.1.9-.2 1.3s-.1.9-.2 1.3a2.5 2.5 0 0 0-.1.8 3.9 3.9 0 0 0-.6 1.1c-.1.4-.3.7-.4 1.2l-.3 1.2a3.7 3.7 0 0 1-.5 1.1 11.4 11.4 0 0 1-1 1.9 15.1 15.1 0 0 0-.9 1.8l-12.1 16.7c0 .2-.1.3-.1.4h-.2l-.2.2-.2.3-1 1.4-1.3 1.7-1.3 2-1.2 1.9-.8 1.8a4.4 4.4 0 0 0-.3 1.4c0 .2-.2.3-.1.5s.1.2.1.4a.2.2 0 0 0-.2.2c0 .2.1.2.2.3v6.1a1.4 1.4 0 0 1-.2.6c-.1.2-.1.5-.2.7l-.4.7c0 .3-.2.5-.2.7v1s.1.1 0 .3l-.3.4-.4.5a.7.7 0 0 1-.3.3v.2c0 .1.4.2.4.3l.6.2V98a13 13 0 0 1-.4 2.1 14.2 14.2 0 0 1-.5 2.2c-.1.7-.3 1.4-.4 2.1a14.9 14.9 0 0 0-.2 2.1c0 1.3.1 2.5.2 3.8a22 22 0 0 0 .7 3.7 17.1 17.1 0 0 0 3.3 6.6 1.8 1.8 0 0 1-.7.5l-1.1.4a1.9 1.9 0 0 1-1 .3h-1.8l-.7-.2h-1l-.5-.2-.4-.3c-.1-.1-.1-.2-.2-.4a20.1 20.1 0 0 0 .1-2.5c0-.8-.1-1.7-.1-2.5a20.2 20.2 0 0 0-.4-2.6l-.3-2.5v-.6c-.1-.2-.1-.4-.2-.4a15.5 15.5 0 0 0 .1-2.2 19.3 19.3 0 0 0-.2-2.4 8.8 8.8 0 0 0-.3-2.4 6.7 6.7 0 0 0-.9-2.1 2.4 2.4 0 0 0-.8 1.1 7.5 7.5 0 0 0-.5 1.6 11.3 11.3 0 0 1-.3 1.8c-.1.5-.5 1-.5 1.4v4.5c0 1.7-.2 3.4-.1 5a42.1 42.1 0 0 0 .4 5l.2.2.5.4.5.4c.1.1.2.2.2.3s-.2.3-.5.5l-1.1.5-1.2.6-.8.2h-.1l-2.9-1.6c-.2-.1-.1-.2-.1-.3v-.3a10.7 10.7 0 0 1 0-1.8 10.9 10.9 0 0 0 .1-1.8 16.4 16.4 0 0 0-.2-2.3c-.1-.8-.3-1.5-.4-2.3l-.3-2.2a19.4 19.4 0 0 1-.2-2.4 12.7 12.7 0 0 1 .1-2 9.9 9.9 0 0 1 .2-1.7l.3-1.7c.1-.5.3-1.2.4-1.9v-.4a.9.9 0 0 1-.1-.5l-1.1.2-1.2.3-1.1.4-1.2.3H72.4a2.8 2.8 0 0 0-1.4.6v3.1c0 1 0 2-.1 3.1s-.1 2-.1 3-.1 2.1-.1 3.2v3c0 .3.4.6.6 1l.9 1a6.1 6.1 0 0 1 .7 1 2.6 2.6 0 0 1 .3 1.1v.2a6.5 6.5 0 0 1-2.4.2c0 .3 0 .4-.2.5h-3l-1.1-.5a1.4 1.4 0 0 1-.4-1.1v-.8a2.4 2.4 0 0 0 .2-.8 2.4 2.4 0 0 0 .2-.8 1.9 1.9 0 0 0 .1-.8 16.9 16.9 0 0 0-.1-2.3c-.2-.8-.3-1.5-.5-2.2a18.9 18.9 0 0 0-.5-2.3c-.1-.7-.3-1.4-.4-2.4h-.2c-.2 0-.3.5-.4.6s-.1.2-.2.4l-.2.3-.9 1.4-.9 1.3a10.1 10.1 0 0 0-.7 1.5 7.8 7.8 0 0 0-.2 1.6 3.6 3.6 0 0 0 .2 1l.4.9.5.7.2.4a.5.5 0 0 1-.3.4l-.6.3h-3.4l-.6-.2-.5-.5-.3-1-.3-1a3 3 0 0 1-.2-1 1.6 1.6 0 0 1 .3-.9 4.1 4.1 0 0 1 .5-.9l.7-1a4.1 4.1 0 0 0 .5-.9L60 109c.4-1.2.9-2.4 1.4-3.6l.3-.4.3-.5.3-.4a.9.9 0 0 0 .1-.5c0-.2-.1-.4-.2-.4h-.8l-5.4 1.5-.8.3-1 .2-1 .4a.5.5 0 0 0-.4.6.7.7 0 0 0 .2.6c0 .1.2.2.3.4l.5.3a1 1 0 0 1 .5.4l-.3.2-.7-.5-.9-.5-.9-.4h-.9l-2.3.3-2.4.7-2.4.7a11.5 11.5 0 0 1-2.6.3l-2.1-.3-2.9-.6-3.3-1.1a20.8 20.8 0 0 1-3-1.3 9.8 9.8 0 0 1-2.2-1.7 2.3 2.3 0 0 1-.9-1.8 2.4 2.4 0 0 1 .7-1.9 3.4 3.4 0 0 1 1.6-1 7.9 7.9 0 0 1 2.2-.1l2 .2h2.4a2 2 0 0 1 .7-.2h1.4l1.6.2 1.2.2 1.2.3 1 .5 1.1.5 1.2.2a4.4 4.4 0 0 0 2.4-.7 12.8 12.8 0 0 0 2.5-1.5l2.4-1.9 1.9-1.6 1.2-.8 1.1-.6 1-.8a2.8 2.8 0 0 0 .9-1c.6-.9 1.1-1.8 1.6-2.7a17.5 17.5 0 0 1 1.6-2.7l.8-.8 1-.6.9-.5 1-.6 2.2-1.6 2.1-1.7 2-1.8 2.1-1.8a17.1 17.1 0 0 1 2.3-1.3l2.3-1.1 1.5-.8 1.5-.8 1.6-.7 1.6-.4 13.5-2a5.8 5.8 0 0 0 2.1-.7 8.6 8.6 0 0 0 2-1.3 15.4 15.4 0 0 0 1.9-1.7l1.8-2 1.6-1.9 1.4-1.7 4.7-5.4.2-.2.3-.3.3-.3.2-.2 1.2-2h.4l.2-.2a.1.1 0 0 0 .1-.1l.3-.2c.1-.1.2-.2.2-.3l.8-1 .8-1.2.8-1.2.6-1 .5-1.2.4-1.3a6.9 6.9 0 0 1 .5-1.3c.1-.5.6-.9.6-1.3v-3.9a3.4 3.4 0 0 0-.7-1.9 8.1 8.1 0 0 0-1.6-1.6l-2-1.1a8.1 8.1 0 0 0-1.9-.4 18.7 18.7 0 0 0-3.5.4 7.1 7.1 0 0 0-3.1 1.6 3.8 3.8 0 0 0-.9.9l-1 1.1-1 1.2-1.1 1.1a5.9 5.9 0 0 1-1.1.8l-1.1.3a.9.9 0 0 1-.7-.3.7.7 0 0 1-.3-.6V39a.6.6 0 0 0 .1-.4 1.1 1.1 0 0 0 .1-.5.4.4 0 0 0 .1-.3 3 3 0 0 0-.2-1l-.3-.8-.4-.7a2.4 2.4 0 0 1-.2-.8c.3 0 .5 0 .6-.2l.2-.3.3-.5a.6.6 0 0 1 .5-.3c0-.1.1-.1.3-.1h1.4a1.1 1.1 0 0 0 .6-.2l.4-.4h.2c.1 0 .1.1.2.2s0 .2.1.3a.2.2 0 0 1 .2-.2l.4-.3.7-.4.8-.4.8-.5.6-.4.4-.3 1.3-.7 1-.4h5.1a1.6 1.6 0 0 0 .9.3l.9.2.9.2 1 .3a12.7 12.7 0 0 1 2.7 1.8 9.7 9.7 0 0 1 1.9 2.6 13.3 13.3 0 0 1 1.1 3 18.4 18.4 0 0 1 .3 3.3v1.4z"/></svg>