<svg xmlns="http://www.w3.org/2000/svg" width="153.3" height="153.3" viewBox="0 0 153.3 153.3"><path fill="#0056cb" d="M76.7 0a76.7 76.7 0 1 0 76.6 76.7A76.6 76.6 0 0 0 76.7 0zM143 70h-4.5l-5.5-.2-5.5-.6-5.5-.6a49.3 49.3 0 0 0-5.5-.3 80.6 80.6 0 0 0-9.8.6 51.5 51.5 0 0 0-9.6 2.1l-18.4 6.7c-.3.1-.5.4-.7.9a8.4 8.4 0 0 0-.5 1.7c-.1.6-.3 1.2-.4 1.7a5 5 0 0 1-.3 1.2 1.5 1.5 0 0 0 .8.8l1.5.7 1.7.7a5.6 5.6 0 0 1 1.7.9 4.3 4.3 0 0 1 1.2 1.1 2 2 0 0 1 .5 1.5.9.9 0 0 1-.3.7 1.8 1.8 0 0 1-.7.5l-1 .5-.9.5a2.4 2.4 0 0 0-.8.6 1.2 1.2 0 0 0-.3.9 2.3 2.3 0 0 0 .5 1.5 4 4 0 0 0 1.2 1l1.4.8a4.1 4.1 0 0 1 1.3 1 11.3 11.3 0 0 1 1.2 2.1 19.5 19.5 0 0 1 .8 2.2 18.5 18.5 0 0 1 .4 2.3 19.4 19.4 0 0 1 .2 2.4l.8.8v4.3h1.1l.6.2h.4v.5a1.5 1.5 0 0 1-.1.6 1.4 1.4 0 0 1-.2.7 1.3 1.3 0 0 1-.4.6c-.1.2-.3.2-.5.2h-3.1l-.6-.5-.9-.5-1-.5-.6-.5h-3.8a3.4 3.4 0 0 1 .4-1.8 2.8 2.8 0 0 1 1-.9l1.3-.4 1.3-.2 1-.4c.2-.1.3-.4.3-.8v-.4l-.5-1.1-.8-1.4a11.9 11.9 0 0 0-.9-1.5 3.5 3.5 0 0 0-.9-1.1l-.8-.5-1.1-.5-1.1-.7a1.3 1.3 0 0 1-.6-.7c-.2-.5-.3-1-.5-1.7a11.8 11.8 0 0 0-.7-2 4 4 0 0 0-1-1.5 2.4 2.4 0 0 0-1.8-.6 14.7 14.7 0 0 0-3.6.4 12.8 12.8 0 0 0-3.4 1.4 16.1 16.1 0 0 0-3 2.1 10.1 10.1 0 0 0-2.4 2.7h-.4v-.2c-.1-.1-.1-.2-.1-.4v-.3a.3.3 0 0 1-.1-.2h-.2a.9.9 0 0 0-.6.3l-.5.7-.5.8a1.7 1.7 0 0 1-.6.6l-.4-1v-1a9.9 9.9 0 0 1 .2-1.7l.6-1.7a8.8 8.8 0 0 0 .5-1.5 9.9 9.9 0 0 0 .3-1.7h-3a1.7 1.7 0 0 1 .4-1.4 3.2 3.2 0 0 1 1-1L59 90l1.3-.2h1.8l1.8.3 1.7.3h3.1a1.5 1.5 0 0 0-1-.9l-1.7.1-1.6-.2a3.1 3.1 0 0 1-1.4-.1L60.7 88h-.2a6.1 6.1 0 0 0-1.9 0h-1.9a5.8 5.8 0 0 1-1.8-.4l-1.6-.9-1.6-.7a3.2 3.2 0 0 0-1.7-.4v3.7h1l.6-.2.5-.3c.2-.1.2-.3.5-.4h.4v1.7l1.2-.4a.4.4 0 0 1 .1.3.4.4 0 0 1 .1.3 3.1 3.1 0 0 1-.8 2.3 16.6 16.6 0 0 1-1.9 1.8 10.9 10.9 0 0 0-2.8-.8L46 93v-4.7l-1 .3-1.3.6-1.1.7c-.3.3-.6.5-.6.7v4.2a3.9 3.9 0 0 0 1.8-.2l1.1-.3.7-.4h1c0 .1.1.2.2.4a2.4 2.4 0 0 0 .2.8l.3.8a4.3 4.3 0 0 0 .1.5 2.7 2.7 0 0 1-.3 1.2 3 3 0 0 1-.6 1.1 3.9 3.9 0 0 1-1 .8 1.9 1.9 0 0 1-1 .3h-.7l-1.8-.4-2.2-.5a5.4 5.4 0 0 1-1.9-.7 1.5 1.5 0 0 1-.9-1.3v-7c0-.1.2-.3.5-.5l1.2-1 1.4-1.3 1.4-1.5a11.6 11.6 0 0 0 1.1-1.6 3.7 3.7 0 0 0 .5-1.6 2.8 2.8 0 0 0-.7-1.7 10.4 10.4 0 0 0-1.7-1.2l-2-.9-1.5-.5-.8-5.5A12.4 12.4 0 0 0 36 71a4.9 4.9 0 0 0-.6-1.7 6.9 6.9 0 0 0-1.1-1.3 2.8 2.8 0 0 0-1.6-.5 6.9 6.9 0 0 0-2.2.3 8.2 8.2 0 0 0-1.9.9l-1 .6-1.6.9-1.8 1.1-1.7 1a10.1 10.1 0 0 1-1.6 1c-.4.3-.8.7-1 .7h-1.6l-1.3-.4-.8-.4c-.3-.2-.2-.5-.2-.9v-1.1c0-.3-.1-.5 0-.5h1a.1.1 0 0 1 0-.2.9.9 0 0 1 .1-.5.7.7 0 0 1 .1-.5v-.3l-.5-.5-.5-.3c-.2-.1-.3-.3-.4-.4s-.2-.4-.2-.8a2 2 0 0 1 .1-.7l.4-.7c.2-.2.2-.4.4-.5l.5-.3v.5c0 .3.3.6.3.8a.8.8 0 0 0 .8.5.9.9 0 0 0 .6-.3l.6-.7a3 3 0 0 0 .4-1c.1-.2.1.2.1-.8h-7.3c-.2 0-.3-.1-.5-.3l-.7-.4c-.2-.2-.4-.3-.5-.5a.7.7 0 0 1-.3-.6 2.9 2.9 0 0 1 .7-1.9 3.8 3.8 0 0 1 1.6-1.1 6 6 0 0 1 1.9-.6l1.7-.5 1.3-.6 2.1-.9 2-1a4.5 4.5 0 0 1 1.3-.6h8.2a4.4 4.4 0 0 1 2.3.6 9 9 0 0 1 1.9 1.5 14.9 14.9 0 0 1 1.5 2l1.4 2a10.3 10.3 0 0 0 1.4 1.5 2.1 2.1 0 0 0 1.5.7.5.5 0 0 0 .5-.3c0-.1.2-.2.5-.2a1.5 1.5 0 0 1 .9.2l.9.4.9.4 1 .2h2.4l2.5-.3 2.5-.3h2.5l4.4.2a24.1 24.1 0 0 1 4.3 1l3.1 1.2 3 1.3 3.2 1a12 12 0 0 0 3.3.5h1.5l7.8-1.6c2.6-.6 5.2-1 7.7-1.4l7.8-1c2.6-.2 5.3-.3 7.9-.3h5.3a22.4 22.4 0 0 1 3.1.5l21.9 4.2h7.1c-.5 0-1.1.6-1.9.8a19.4 19.4 0 0 1-2.4.2z"/></svg>